<svg width="24" height="24" viewBox="0 0 24 24" fill="none" xmlns="http://www.w3.org/2000/svg">
<g clip-path="url(#clip0_4_370)">
<path d="M22.425 9.121C22.3341 8.84104 22.163 8.594 21.9327 8.41063C21.7025 8.22726 21.4235 8.11566 21.1303 8.08975L15.5625 7.60974L13.38 2.41974C13.2663 2.14742 13.0747 1.9148 12.8291 1.75117C12.5835 1.58755 12.295 1.50024 12 1.50024C11.7049 1.50024 11.4164 1.58755 11.1708 1.75117C10.9253 1.9148 10.7336 2.14742 10.62 2.41974L8.44403 7.60974L2.86965 8.09162C2.5751 8.11617 2.29436 8.22721 2.0627 8.41077C1.83103 8.59434 1.65876 8.84225 1.56752 9.12339C1.47628 9.40453 1.47013 9.70636 1.54985 9.99098C1.62956 10.2756 1.79159 10.5303 2.01559 10.7232L6.24465 14.4188L4.97715 19.9069C4.91013 20.1941 4.92925 20.4947 5.03213 20.7711C5.13501 21.0475 5.31708 21.2874 5.55558 21.4609C5.79408 21.6344 6.07842 21.7337 6.37306 21.7464C6.6677 21.7592 6.95956 21.6848 7.21215 21.5326L11.9934 18.6263L16.785 21.5326C17.0376 21.6848 17.3294 21.7592 17.6241 21.7464C17.9187 21.7337 18.203 21.6344 18.4415 21.4609C18.68 21.2874 18.8621 21.0475 18.965 20.7711C19.0679 20.4947 19.087 20.1941 19.02 19.9069L17.7534 14.4132L21.9815 10.7232C22.2052 10.5296 22.3666 10.2742 22.4455 9.98914C22.5244 9.70406 22.5173 9.40202 22.425 9.121ZM20.9981 9.58974L16.77 13.2797C16.5642 13.4587 16.4111 13.6905 16.3272 13.95C16.2433 14.2095 16.2317 14.487 16.2937 14.7526L17.564 20.2501L12.7762 17.3438C12.5426 17.2016 12.2744 17.1263 12.0009 17.1263V3.00849L14.1759 8.191C14.2815 8.44286 14.4539 8.6611 14.6745 8.82219C14.895 8.98327 15.1554 9.08108 15.4275 9.10506L21 9.58693C21 9.58693 21 9.59256 21 9.59349L20.9981 9.58974Z" fill="#262626"/>
</g>
<defs>
<clipPath id="clip0_4_370">
<rect width="24" height="24" fill="white"/>
</clipPath>
</defs>
</svg>
