<svg width="24" height="24" viewBox="0 0 24 24" fill="none" xmlns="http://www.w3.org/2000/svg">
<g clip-path="url(#clip0_4_371)">
<path d="M12.6882 2.70939L14.866 7.89939C14.9187 8.02534 15.0048 8.13452 15.115 8.21514C15.2252 8.29576 15.3553 8.34477 15.4913 8.35689L21.0657 8.83876C21.2136 8.85065 21.3546 8.90615 21.471 8.99822C21.5873 9.0903 21.6738 9.21483 21.7193 9.35604C21.7649 9.49726 21.7676 9.64881 21.727 9.79153C21.6864 9.93426 21.6044 10.0617 21.4913 10.1578L17.2622 13.8469C17.1594 13.9372 17.083 14.0536 17.0411 14.1839C16.9992 14.3141 16.9933 14.4533 17.0241 14.5866L18.2916 20.0747C18.3251 20.218 18.3157 20.3681 18.2645 20.5061C18.2133 20.6441 18.1227 20.764 18.0038 20.8509C17.885 20.9377 17.7432 20.9877 17.5962 20.9946C17.4491 21.0014 17.3033 20.9648 17.1769 20.8894L12.3863 17.9831C12.2699 17.9124 12.1363 17.8749 12 17.8749C11.8638 17.8749 11.7302 17.9124 11.6138 17.9831L6.82317 20.8894C6.69677 20.9648 6.55096 21.0014 6.40392 20.9946C6.25687 20.9877 6.1151 20.9377 5.99625 20.8509C5.87741 20.764 5.78675 20.6441 5.73558 20.5061C5.68441 20.3681 5.67498 20.218 5.70848 20.0747L6.97598 14.5866C7.00679 14.4533 7.00092 14.3141 6.95899 14.1839C6.91707 14.0536 6.84065 13.9372 6.73786 13.8469L2.50879 10.1578C2.39573 10.0617 2.31371 9.93426 2.27312 9.79153C2.23252 9.64881 2.23518 9.49726 2.28074 9.35604C2.32631 9.21483 2.41274 9.0903 2.5291 8.99822C2.64546 8.90615 2.78651 8.85065 2.93442 8.83876L8.50879 8.35689C8.64479 8.34477 8.77491 8.29576 8.8851 8.21514C8.9953 8.13452 9.08139 8.02534 9.13411 7.89939L11.3119 2.70939C11.3701 2.57521 11.4662 2.46096 11.5885 2.3807C11.7107 2.30045 11.8538 2.25769 12 2.25769C12.1463 2.25769 12.2893 2.30045 12.4116 2.3807C12.5339 2.46096 12.63 2.57521 12.6882 2.70939Z" stroke="#262626" stroke-width="2" stroke-linecap="round" stroke-linejoin="round"/>
</g>
<defs>
<clipPath id="clip0_4_371">
<rect width="24" height="24" fill="white"/>
</clipPath>
</defs>
</svg>
